<svg width="94" height="75" viewBox="0 0 94 75" fill="none" xmlns="http://www.w3.org/2000/svg">
<path fill-rule="evenodd" clip-rule="evenodd" d="M69.5593 0.299003C64.5387 1.18506 62.6986 1.62468 59.6593 2.66387C49.3174 6.19942 39.3639 12.4999 27.3756 23.0988C14.4486 34.5274 3.18266 50.4157 0.565652 60.9082C-1.21295 68.0403 1.30537 73.7368 6.67893 74.7361C8.21281 75.0214 8.82444 74.9731 11.0885 74.3893C19.6625 72.1773 35.8206 63.5283 50.6874 53.193C53.128 51.4964 55.7054 49.9269 56.0513 49.9269C56.5182 49.9269 56.1868 51.0261 55.0437 53.2704C53.5602 56.1819 53.1664 57.5828 53.1642 59.9544C53.1608 63.3758 55.3626 65.6872 58.2488 65.2915C61.3673 64.8639 74.1384 57.8182 76.4757 55.2355C77.1229 54.5202 77.0579 53.6948 76.3176 53.2286C75.9123 52.9734 75.0408 53.3576 72.141 55.0706C65.8369 58.7943 58.1408 62.2215 57.0351 61.7974C55.8725 61.3513 56.697 58.772 59.1974 55.0316C61.0329 52.2859 62.839 50.189 68.5956 44.1187C70.7377 41.8603 72.5949 39.729 72.723 39.3828C73.0234 38.571 72.2803 36.7772 71.462 36.3391C70.6551 35.9072 69.731 36.2596 67.8057 37.7335C66.5209 38.717 43.2323 54.2557 36.9201 58.3407C27.288 64.5747 23.0953 66.8736 15.8269 69.9055C10.0112 72.3313 5.64746 72.564 3.4379 70.5657C0.322172 67.7479 1.94331 61.1273 7.99563 51.953C13.027 44.326 17.9309 38.3819 24.9869 31.3569C42.3738 14.0464 60.3875 4.44866 75.491 4.44866C81.2936 4.44866 86.135 5.92346 89.3232 8.66206C90.8741 9.99423 92.2981 12.7164 92.6029 14.9313C93.0162 17.9365 91.2574 22.6341 88.1379 26.8565C87.4431 27.7973 85.6069 29.8927 84.0579 31.5132C81.6943 33.9857 81.3029 34.5342 81.6256 34.9228C82.2935 35.7278 83.0144 35.4401 85.3675 33.4288C91.1386 28.4968 94 22.7418 94 16.0676C94 11.8907 92.0754 7.78621 88.8619 5.11011C87.1414 3.6777 83.1176 1.64416 80.2326 0.890828C75.4908 -0.34733 71.4604 -0.0363609 69.5593 0.299003Z" fill="#46A0F8"/>
</svg>
