<svg width="102" height="83" viewBox="0 0 102 83" fill="none" xmlns="http://www.w3.org/2000/svg">
<g filter="url(#filter0_d_303_19)">
<path fill-rule="evenodd" clip-rule="evenodd" d="M73.5593 0.299003C68.5387 1.18506 66.6986 1.62468 63.6593 2.66387C53.3174 6.19942 43.3639 12.4999 31.3756 23.0988C18.4486 34.5274 7.18266 50.4157 4.56565 60.9082C2.78705 68.0403 5.30537 73.7368 10.6789 74.7361C12.2128 75.0214 12.8244 74.9731 15.0885 74.3893C23.6625 72.1773 39.8206 63.5283 54.6874 53.193C57.128 51.4964 59.7054 49.9269 60.0513 49.9269C60.5182 49.9269 60.1868 51.0261 59.0437 53.2704C57.5602 56.1819 57.1664 57.5828 57.1642 59.9544C57.1608 63.3758 59.3626 65.6872 62.2488 65.2915C65.3673 64.8639 78.1384 57.8182 80.4757 55.2355C81.1229 54.5202 81.0579 53.6948 80.3176 53.2286C79.9123 52.9734 79.0408 53.3576 76.141 55.0706C69.8369 58.7943 62.1408 62.2215 61.0351 61.7974C59.8725 61.3513 60.697 58.772 63.1974 55.0316C65.0329 52.2859 66.839 50.189 72.5956 44.1187C74.7377 41.8603 76.5949 39.729 76.723 39.3828C77.0234 38.571 76.2803 36.7772 75.462 36.3391C74.6551 35.9072 73.731 36.2596 71.8057 37.7335C70.5209 38.717 47.2323 54.2557 40.9201 58.3407C31.288 64.5747 27.0953 66.8736 19.8269 69.9055C14.0112 72.3313 9.64746 72.564 7.4379 70.5657C4.32217 67.7479 5.94331 61.1273 11.9956 51.953C17.027 44.326 21.9309 38.3819 28.9869 31.3569C46.3738 14.0464 64.3875 4.44866 79.491 4.44866C85.2936 4.44866 90.135 5.92346 93.3232 8.66206C94.8741 9.99423 96.2981 12.7164 96.6029 14.9313C97.0162 17.9365 95.2574 22.6341 92.1379 26.8565C91.4431 27.7973 89.6069 29.8927 88.0579 31.5132C85.6943 33.9857 85.3029 34.5342 85.6256 34.9228C86.2935 35.7278 87.0144 35.4401 89.3675 33.4288C95.1386 28.4968 98 22.7418 98 16.0676C98 11.8907 96.0754 7.78621 92.8619 5.11011C91.1414 3.6777 87.1176 1.64416 84.2326 0.890828C79.4908 -0.34733 75.4604 -0.0363609 73.5593 0.299003Z" fill="#0875E0"/>
</g>
<defs>
<filter id="filter0_d_303_19" x="0" y="0" width="102" height="82.9057" filterUnits="userSpaceOnUse" color-interpolation-filters="sRGB">
<feFlood flood-opacity="0" result="BackgroundImageFix"/>
<feColorMatrix in="SourceAlpha" type="matrix" values="0 0 0 0 0 0 0 0 0 0 0 0 0 0 0 0 0 0 127 0" result="hardAlpha"/>
<feOffset dy="4"/>
<feGaussianBlur stdDeviation="2"/>
<feComposite in2="hardAlpha" operator="out"/>
<feColorMatrix type="matrix" values="0 0 0 0 1 0 0 0 0 1 0 0 0 0 1 0 0 0 1 0"/>
<feBlend mode="normal" in2="BackgroundImageFix" result="effect1_dropShadow_303_19"/>
<feBlend mode="normal" in="SourceGraphic" in2="effect1_dropShadow_303_19" result="shape"/>
</filter>
</defs>
</svg>
